<svg width="35" height="35" xmlns="http://www.w3.org/2000/svg" xmlns:xlink="http://www.w3.org/1999/xlink" overflow="hidden"><defs><clipPath id="clip0"><rect x="345" y="42" width="35" height="35"/></clipPath><clipPath id="clip1"><rect x="345" y="42" width="34" height="34"/></clipPath><clipPath id="clip2"><rect x="345" y="42" width="34" height="34"/></clipPath><clipPath id="clip3"><rect x="345" y="42" width="34" height="34"/></clipPath><clipPath id="clip4"><rect x="351" y="49" width="15" height="14"/></clipPath><clipPath id="clip5"><rect x="351" y="49" width="15" height="14"/></clipPath><clipPath id="clip6"><rect x="351" y="49" width="15" height="14"/></clipPath></defs><g clip-path="url(#clip0)" transform="translate(-345 -42)"><g clip-path="url(#clip1)"><g clip-path="url(#clip2)"><g clip-path="url(#clip3)"><path d="M375.281 68.775 370.854 64.3479C370.252 63.7458 369.438 63.5333 368.658 63.675L367.1 62.1167C368.481 60.3458 369.296 58.0792 369.296 55.6708 369.296 49.8271 364.515 45.0458 358.671 45.0458 352.827 45.0458 348.046 49.8271 348.046 55.6708 348.046 61.5146 352.827 66.2958 358.671 66.2958 361.079 66.2958 363.31 65.4812 365.117 64.1L366.675 65.6583C366.533 66.4375 366.746 67.2521 367.348 67.8542L371.775 72.2813C372.271 72.7771 372.908 73.025 373.546 73.025 374.183 73.025 374.821 72.7771 375.317 72.2813 376.237 71.2896 376.237 69.7312 375.281 68.775ZM358.635 64.1354C353.96 64.1354 350.135 60.3104 350.135 55.6354 350.135 50.9604 353.96 47.1354 358.635 47.1354 363.31 47.1354 367.135 50.9604 367.135 55.6354 367.135 60.3104 363.31 64.1354 358.635 64.1354Z" fill="#FFFFFF"/></g></g></g><g clip-path="url(#clip4)"><g clip-path="url(#clip5)"><g clip-path="url(#clip6)"><path d="M11.2875 3.52917 10.0625 1.75 10.0625 1.225C10.0625 1.09375 9.90208 1.03542 9.81458 1.12292L7.80208 3.00417C7.56875 3.22292 7.4375 3.52917 7.4375 3.85L7.4375 3.9375C7.4375 5.17708 4.08333 5.6875 4.08333 9.625 4.08333 10.15 4.1125 10.6021 4.18542 10.9812 4.15625 10.9521 4.12708 10.9229 4.08333 10.8937 3.74792 10.5729 3.35417 9.85833 3.35417 8.3125 3.35417 7.77292 3.61667 7.21875 3.87917 6.69375 4.2875 5.84792 4.75417 4.88542 3.95208 4.06875 3.77708 3.89375 3.5 3.89375 3.33958 4.06875 3.16458 4.24375 3.16458 4.52083 3.33958 4.68125 3.675 5.01667 3.52917 5.41042 3.10625 6.3 2.8 6.89792 2.47917 7.58333 2.47917 8.3125 2.47917 9.81458 2.82917 10.9083 3.5 11.55 3.85 11.8854 4.22917 12.0167 4.49167 12.075 4.76875 12.6583 5.10417 12.8333 5.25 12.8333L7 12.8333C7.24792 12.8333 7.4375 12.6437 7.4375 12.3958 7.4375 12.1771 7.27708 11.9875 7.05833 11.9583L6.5625 11.9583C7.11667 11.6521 7.58333 11.025 7.58333 9.91667 7.58333 8.95417 7.39375 8.56042 6.75208 8.21042 6.65 8.15208 6.60625 8.02083 6.66458 7.91875 6.72292 7.81667 6.85417 7.77292 6.95625 7.83125 7.84583 8.29792 8.02083 8.95417 8.02083 9.91667 8.02083 10.4417 7.91875 10.9083 7.72917 11.3021L7.72917 12.3958C7.72917 12.6437 7.91875 12.8333 8.16667 12.8333 8.41458 12.8333 8.60417 12.6437 8.60417 12.3958L8.60417 11.0542C8.70625 10.9375 8.80833 10.8062 8.89583 10.6604L8.89583 12.3958C8.89583 12.6437 9.08542 12.8333 9.33333 12.8333 9.58125 12.8333 9.77083 12.6437 9.77083 12.3958L9.77083 8.51667C9.87292 8.07917 9.91667 7.7 9.91667 7.4375 9.91667 6.28542 9.625 6.16875 9.625 5.54167 9.625 5.22083 9.8875 4.95833 10.2083 4.95833 10.85 4.95833 11.375 4.43333 11.375 3.79167 11.375 3.68958 11.3458 3.60208 11.2875 3.52917Z" fill="#FFFFFF" transform="matrix(1.07143 0 0 1 351 49)"/></g></g></g></g></svg>